<svg xmlns="http://www.w3.org/2000/svg" width="58" height="28" fill="none" viewBox="0 0 58 28"><path fill="#fff" fill-rule="evenodd" d="M13.153 0q.036.358.031.717a5.15 5.15 0 0 1-1.452 3.27c-.393.413-.827.776-1.362.99-.457.183-.935.219-1.417.254l-.007.001h-.001L8.94 5.23l-.004-.002-.005-.003-.008-.005C8.993 2.395 10.41.568 13.153 0m4.256 7.004-.172.158q-.244.221-.483.447c-.763.726-1.337 1.57-1.539 2.621a4.92 4.92 0 0 0 .898 3.992c.44.599.965 1.096 1.663 1.384a6 6 0 0 0 .264.102l-.047.131-.036.1-.007.019-.008.022a9 9 0 0 1-.17.459c-.57 1.384-1.31 2.665-2.319 3.776a5.6 5.6 0 0 1-.616.57c-.735.6-1.562.831-2.494.554-.465-.136-.925-.29-1.387-.432a5.3 5.3 0 0 0-1.461-.277c-.623-.015-1.194.172-1.773.385q-.65.257-1.327.436c-.71.17-1.353-.049-1.94-.45a5.8 5.8 0 0 1-1.47-1.518A15.6 15.6 0 0 1 .71 14.711a11.1 11.1 0 0 1-.305-4.67c.208-1.39.724-2.646 1.696-3.683 1.01-1.074 2.256-1.517 3.713-1.37.725.071 1.418.283 2.113.486q.192.055.389.103l.1.025.106.025.145.036.138.034c.41.093.838.072 1.237-.062q.45-.133.896-.277h.002q.404-.13.807-.25a5.34 5.34 0 0 1 2.584-.156c1.131.22 2.026.83 2.775 1.687l.276.325q.015.02.026.04m10.508-3.995a27 27 0 0 0-4.464.35v17.88h2.325v-7.248c.535.134 1.176.16 1.87.16 2.273 0 4.276-.672 5.508-1.989.909-.94 1.39-2.229 1.39-3.866 0-1.609-.588-2.925-1.576-3.784-1.072-.966-2.756-1.503-5.053-1.503m-.215 9.258c-.775 0-1.417-.05-1.924-.184v-7.04c.4-.105 1.176-.185 2.191-.185 2.566 0 4.25 1.154 4.25 3.543 0 2.498-1.711 3.866-4.517 3.866m15.23 8.971-.184-1.638h-.08c-.722 1.02-2.113 1.933-3.956 1.933-2.618 0-3.955-1.852-3.955-3.732 0-3.138 2.78-4.859 7.777-4.832V12.7c0-1.073-.294-3.007-2.94-3.007-1.203 0-2.458.377-3.367.968l-.535-1.557c1.07-.699 2.62-1.155 4.25-1.155 3.955 0 4.917 2.712 4.917 5.315v4.856c0 1.128.053 2.23.213 3.115zm-.348-6.631c-2.565-.054-5.478.402-5.478 2.925 0 1.53 1.015 2.256 2.219 2.256 1.683 0 2.756-1.074 3.123-2.174q.125-.366.133-.752zm8.228 1.316L47.98 8.245h-2.565l4.779 11.97c.107.295.16.482.16.617s-.076.322-.183.564a7.2 7.2 0 0 1-1.977 2.631 6.2 6.2 0 0 1-2.058 1.158l.588 1.986c.589-.107 1.737-.509 2.885-1.53 1.604-1.397 2.753-3.677 4.437-8.134l3.527-9.262h-2.485l-2.57 7.625a45 45 0 0 0-.563 1.827c-.091.313-.179.612-.263.884h-.053a48 48 0 0 0-.827-2.658" clip-rule="evenodd"/></svg>