<svg xmlns="http://www.w3.org/2000/svg" width="189" height="56" fill="none" viewBox="0 0 189 56"><rect width="187.13" height="54.597" x="1.081" y=".701" stroke="#ededed" stroke-width="1.403" rx="6.313"/><path stroke="#ededed" stroke-width="1.403" d="M181.93 55.299H7.362c-3.451 0-6.281-2.835-6.281-6.299V7C1.08 3.536 3.91.701 7.362.701H181.93c3.451 0 6.281 2.835 6.281 6.299v42c0 3.464-2.83 6.298-6.281 6.298Z"/><path fill="#ededed" stroke="#ededed" stroke-miterlimit="10" stroke-width=".281" d="M66.603 14.336c0 1.176-.35 2.114-1.048 2.8-.782.826-1.815 1.246-3.072 1.246-1.215 0-2.234-.42-3.086-1.26s-1.271-1.89-1.271-3.122c0-1.246.419-2.282 1.27-3.122.852-.84 1.872-1.26 3.087-1.26.6 0 1.173.112 1.718.35s.977.546 1.312.938l-.74.742c-.558-.658-1.312-.994-2.29-.994a3.16 3.16 0 0 0-2.29.938c-.643.616-.964 1.428-.964 2.422s.321 1.806.964 2.422c.642.616 1.41.938 2.29.938.936 0 1.718-.308 2.346-.938.405-.406.643-.98.698-1.708h-3.044v-1.022h4.064c.028.224.056.434.056.63Zm6.439-3.499h-3.813v2.66h3.435v1.008H69.23v2.66h3.813v1.036h-4.888v-8.4h4.888zm4.538 7.364h-1.075v-7.364h-2.347V9.801h5.754v1.036h-2.346v7.364zm6.508 0v-8.4h1.075v8.4zm5.852 0h-1.076v-7.364h-2.346V9.801h5.754v1.036h-2.347v7.364zm13.239-1.093c-.824.854-1.844 1.274-3.072 1.274-1.23 0-2.249-.42-3.073-1.274s-1.229-1.89-1.229-3.108.405-2.268 1.23-3.108c.823-.854 1.843-1.274 3.072-1.274 1.215 0 2.234.42 3.072 1.274.824.854 1.243 1.89 1.243 3.108-.014 1.232-.419 2.268-1.243 3.108Zm-5.349-.7c.615.63 1.383.938 2.277.938.893 0 1.661-.308 2.276-.938s.936-1.428.936-2.408-.308-1.778-.936-2.408a3.08 3.08 0 0 0-2.276-.952c-.894 0-1.662.308-2.277.938-.614.644-.936 1.442-.936 2.422s.322 1.778.936 2.408Zm8.099 1.793v-8.4h1.313l4.078 6.538h.042l-.042-1.624V9.801h1.075v8.4h-1.117l-4.259-6.846h-.042l.042 1.624v5.222z"/><mask id="a" fill="#fff"><path d="M95.538 30.45c-3.282 0-5.963 2.505-5.963 5.95 0 3.43 2.68 5.95 5.963 5.95s5.963-2.52 5.963-5.95c0-3.445-2.681-5.95-5.963-5.95m0 9.561c-1.802 0-3.352-1.484-3.352-3.612 0-2.142 1.55-3.612 3.352-3.612s3.351 1.47 3.351 3.612c0 2.128-1.564 3.612-3.351 3.612M82.522 30.45c-3.282 0-5.963 2.506-5.963 5.95 0 3.43 2.681 5.95 5.963 5.95s5.963-2.52 5.963-5.95c0-3.444-2.681-5.95-5.963-5.95m0 9.562c-1.802 0-3.352-1.484-3.352-3.612 0-2.142 1.55-3.612 3.352-3.612s3.352 1.47 3.352 3.612c0 2.128-1.55 3.612-3.352 3.612m-15.474-7.728v2.52h6.033c-.181 1.414-.656 2.464-1.368 3.178-.88.882-2.249 1.848-4.65 1.848-3.716 0-6.62-2.996-6.62-6.72s2.904-6.72 6.62-6.72c1.996 0 3.463.784 4.538 1.806l1.774-1.778c-1.509-1.442-3.506-2.548-6.327-2.548-5.083 0-9.357 4.144-9.357 9.254 0 5.096 4.274 9.254 9.357 9.254 2.751 0 4.818-.896 6.438-2.59 1.662-1.666 2.179-4.018 2.179-5.908 0-.588-.042-1.134-.14-1.582h-8.477zm63.278 1.96c-.489-1.33-1.997-3.794-5.084-3.794-3.058 0-5.6 2.408-5.6 5.95 0 3.332 2.514 5.95 5.893 5.95 2.724 0 4.302-1.666 4.944-2.632l-2.025-1.358c-.67.994-1.592 1.652-2.919 1.652s-2.276-.616-2.876-1.806l7.946-3.29zm-8.1 1.988c-.07-2.296 1.773-3.472 3.1-3.472 1.033 0 1.913.518 2.207 1.26zM115.774 42h2.611V24.5h-2.611zM111.5 31.78h-.098c-.586-.7-1.703-1.33-3.128-1.33-2.974 0-5.698 2.618-5.698 5.978 0 3.332 2.724 5.936 5.698 5.936 1.411 0 2.542-.63 3.128-1.358h.084v.854c0 2.282-1.215 3.5-3.17 3.5-1.592 0-2.584-1.148-2.989-2.114l-2.276.952c.656 1.582 2.388 3.514 5.265 3.514 3.059 0 5.642-1.806 5.642-6.202V30.813h-2.472v.966zm-3.002 8.232c-1.802 0-3.31-1.512-3.31-3.584 0-2.1 1.508-3.626 3.31-3.626 1.773 0 3.17 1.54 3.17 3.626.014 2.072-1.383 3.584-3.17 3.584M142.559 24.5h-6.242V42h2.611v-6.636h3.645c2.891 0 5.726-2.1 5.726-5.432s-2.863-5.432-5.74-5.432m.056 8.428h-3.701v-6.006h3.701c1.955 0 3.059 1.624 3.059 2.996s-1.104 3.01-3.059 3.01m16.116-2.506c-1.885 0-3.84.84-4.65 2.674l2.318.966c.489-.966 1.411-1.288 2.374-1.288 1.355 0 2.723.812 2.737 2.254v.182c-.474-.266-1.48-.672-2.723-.672-2.5 0-5.027 1.372-5.027 3.934 0 2.338 2.039 3.85 4.329 3.85 1.746 0 2.723-.784 3.324-1.708h.083v1.358h2.514v-6.706c.014-3.108-2.304-4.844-5.279-4.844m-.321 9.59c-.852 0-2.039-.434-2.039-1.484 0-1.344 1.48-1.862 2.765-1.862 1.145 0 1.69.252 2.374.588-.195 1.61-1.592 2.758-3.1 2.758m14.776-9.212-2.989 7.588h-.084l-3.1-7.588h-2.807l4.65 10.612-2.653 5.894h2.723L176.09 30.8zM149.724 42h2.611V24.5h-2.611z"/></mask><path fill="#ededed" stroke="#ededed" stroke-width="2.806" d="M95.538 30.45c-3.282 0-5.963 2.505-5.963 5.95 0 3.43 2.68 5.95 5.963 5.95s5.963-2.52 5.963-5.95c0-3.445-2.681-5.95-5.963-5.95Zm0 9.561c-1.802 0-3.352-1.484-3.352-3.612 0-2.142 1.55-3.612 3.352-3.612s3.351 1.47 3.351 3.612c0 2.128-1.564 3.612-3.351 3.612ZM82.522 30.45c-3.282 0-5.963 2.506-5.963 5.95 0 3.43 2.681 5.95 5.963 5.95s5.963-2.52 5.963-5.95c0-3.444-2.681-5.95-5.963-5.95Zm0 9.562c-1.802 0-3.352-1.484-3.352-3.612 0-2.142 1.55-3.612 3.352-3.612s3.352 1.47 3.352 3.612c0 2.128-1.55 3.612-3.352 3.612Zm-15.474-7.728v2.52h6.033c-.181 1.414-.656 2.464-1.368 3.178-.88.882-2.249 1.848-4.65 1.848-3.716 0-6.62-2.996-6.62-6.72s2.904-6.72 6.62-6.72c1.996 0 3.463.784 4.538 1.806l1.774-1.778c-1.509-1.442-3.506-2.548-6.327-2.548-5.083 0-9.357 4.144-9.357 9.254 0 5.096 4.274 9.254 9.357 9.254 2.751 0 4.818-.896 6.438-2.59 1.662-1.666 2.179-4.018 2.179-5.908 0-.588-.042-1.134-.14-1.582h-8.477zm63.278 1.96c-.489-1.33-1.997-3.794-5.084-3.794-3.058 0-5.6 2.408-5.6 5.95 0 3.332 2.514 5.95 5.893 5.95 2.724 0 4.302-1.666 4.944-2.632l-2.025-1.358c-.67.994-1.592 1.652-2.919 1.652s-2.276-.616-2.876-1.806l7.946-3.29zm-8.1 1.988c-.07-2.296 1.773-3.472 3.1-3.472 1.033 0 1.913.518 2.207 1.26zM115.774 42h2.611V24.5h-2.611zM111.5 31.78h-.098c-.586-.7-1.703-1.33-3.128-1.33-2.974 0-5.698 2.618-5.698 5.978 0 3.332 2.724 5.936 5.698 5.936 1.411 0 2.542-.63 3.128-1.358h.084v.854c0 2.282-1.215 3.5-3.17 3.5-1.592 0-2.584-1.148-2.989-2.114l-2.276.952c.656 1.582 2.388 3.514 5.265 3.514 3.059 0 5.642-1.806 5.642-6.202V30.813h-2.472v.966zm-3.002 8.232c-1.802 0-3.31-1.512-3.31-3.584 0-2.1 1.508-3.626 3.31-3.626 1.773 0 3.17 1.54 3.17 3.626.014 2.072-1.383 3.584-3.17 3.584ZM142.559 24.5h-6.242V42h2.611v-6.636h3.645c2.891 0 5.726-2.1 5.726-5.432s-2.863-5.432-5.74-5.432Zm.056 8.428h-3.701v-6.006h3.701c1.955 0 3.059 1.624 3.059 2.996s-1.104 3.01-3.059 3.01Zm16.116-2.506c-1.885 0-3.84.84-4.65 2.674l2.318.966c.489-.966 1.411-1.288 2.374-1.288 1.355 0 2.723.812 2.737 2.254v.182c-.474-.266-1.48-.672-2.723-.672-2.5 0-5.027 1.372-5.027 3.934 0 2.338 2.039 3.85 4.329 3.85 1.746 0 2.723-.784 3.324-1.708h.083v1.358h2.514v-6.706c.014-3.108-2.304-4.844-5.279-4.844Zm-.321 9.59c-.852 0-2.039-.434-2.039-1.484 0-1.344 1.48-1.862 2.765-1.862 1.145 0 1.69.252 2.374.588-.195 1.61-1.592 2.758-3.1 2.758Zm14.776-9.212-2.989 7.588h-.084l-3.1-7.588h-2.807l4.65 10.612-2.653 5.894h2.723L176.09 30.8zM149.724 42h2.611V24.5h-2.611z" mask="url(#a)"/><path fill="#ededed" stroke="#ededed" stroke-width="1.403" d="m15.324 12.503 15.697 15.229a.1.1 0 0 1 .027.063.1.1 0 0 1-.028.069L15.57 43.352a.092.092 0 0 1-.14-.016l-.588.384.589-.382a2.3 2.3 0 0 1-.384-1.28V13.294q.004-.384.13-.748l.002-.007a.09.09 0 0 1 .063-.06.09.09 0 0 1 .082.022Zm17.813 13.122-.003-.003-14.7-14.263a.095.095 0 0 1-.012-.12.09.09 0 0 1 .107-.03l18.699 10.265a.1.1 0 0 1 .03.028l.58-.397-.58.397a.1.1 0 0 1 .013.084.1.1 0 0 1-.023.037l-3.989 4-.002.001a.085.085 0 0 1-.12 0Zm11.604-.027a2.33 2.33 0 0 1 1.227 2.076c0 .883-.456 1.653-1.226 2.076l-4.635 2.544a.09.09 0 0 1-.108-.014l-4.591-4.456a.1.1 0 0 1-.028-.065.1.1 0 0 1 .026-.066l4.606-4.617a.09.09 0 0 1 .109-.015zM19.907 43.971l.14-.687a.1.1 0 0 1-.052-.033.09.09 0 0 1 .01-.117l.006-.006.006-.006L33.17 29.936a.09.09 0 0 1 .123-.001l3.927 3.808.002.002a.09.09 0 0 1 .026.077.1.1 0 0 1-.014.039l.578.397-.578-.397a.1.1 0 0 1-.03.028h-.002l-17.08 9.376-.008.004-.008.005a.1.1 0 0 1-.06.01z"/></svg>