<svg xmlns="http://www.w3.org/2000/svg" width="38" height="23" fill="none" viewBox="0 0 38 23"><path fill="#ededed" fill-rule="evenodd" d="M11.542 22.26c2.425 0 4.663-.79 6.465-2.124-2.286-2.15-3.711-5.185-3.711-8.55s1.425-6.402 3.711-8.55A10.83 10.83 0 0 0 11.542.91C5.58.911.745 5.691.745 11.586S5.58 22.26 11.542 22.26M26.23.911c-2.425 0-4.663.79-6.465 2.124a11.705 11.705 0 0 1 .001 17.101 10.83 10.83 0 0 0 6.464 2.124c5.963 0 10.797-4.78 10.797-10.674C37.027 5.69 32.193.91 26.23.91m-3.89 10.675c0-3.092-1.33-5.876-3.454-7.826a10.59 10.59 0 0 0 0 15.651 10.6 10.6 0 0 0 3.454-7.825" clip-rule="evenodd"/></svg>