<svg xmlns="http://www.w3.org/2000/svg" width="1242" height="1242" fill="none" viewBox="0 0 1242 1242"><path fill="url(#a)" d="M621 0C278.035 0 0 278.035 0 621s278.035 621 621 621 621-278.035 621-621S963.965 0 621 0m60.248 1215.4c-334.181 33.85-632.064-204.82-665.337-533.075S226.572 60.496 560.752 26.602C894.933-7.251 1192.77 231.378 1226.05 559.675c33.27 328.297-210.66 621.825-544.844 655.725zM505.767 58.383C183.644 124.35-25.856 429.732 37.79 740.46c63.645 310.73 376.362 509.16 698.443 443.2 322.127-65.97 531.627-371.35 468.017-682.078-63.6-310.728-376.36-509.165-698.483-443.199M785.625 1147.53c-307.04 96-629.66-61.91-720.57-352.706-90.952-290.798 84.28-604.343 391.32-700.35 307.082-95.966 629.665 61.905 720.575 352.702s-84.33 604.344-391.367 700.354zM412.867 134.211C123.562 257.897-17.735 576.083 97.209 844.961c114.943 268.879 442.66 386.559 731.924 262.869C1118.4 984.144 1259.73 665.917 1144.79 397.08S702.173 10.525 412.867 134.211m453.765 931.109c-269.126 148.79-597.299 70.48-732.96-174.862-135.66-245.342-27.43-564.937 241.696-713.734 269.126-148.796 597.299-70.482 732.962 174.86 135.66 245.383 27.43 564.937-241.698 713.736M343.96 221.268C97.002 392.398 20.884 710.087 173.865 930.858c153.023 220.772 477.218 261.002 724.176 89.872C1145 849.602 1221.12 531.871 1068.14 311.101 915.112 90.331 590.918 50.096 343.96 221.226zm579.439 753.678c-223.049 190.564-539.247 186.584-706.233-8.868C50.138 770.625 95.593 457.66 318.601 267.096 541.65 76.532 857.848 80.51 1024.83 275.963c166.99 195.453 121.58 508.419-101.431 698.983m55.732-728.651C801.412 76.449 496.982 106.532 299.209 313.504c-197.774 206.973-214.058 512.438-36.34 682.284 177.719 169.842 482.149 139.762 679.922-67.209 197.769-206.973 214.059-512.438 36.34-682.284m-22.707 636C784.879 1102.57 495.615 1164.14 310.355 1019.86c-185.26-144.278-196.365-439.799-24.779-660.072C457.121 139.515 746.385 77.941 931.645 222.221c185.265 144.28 196.365 439.801 24.779 660.074m-73.425-678.513c-189.735-119.17-460.85-28.922-605.586 201.503-144.694 230.425-108.189 513.846 81.546 632.975 189.735 119.17 460.851 28.92 605.586-201.503 144.695-230.425 108.185-513.847-81.546-632.975m84.488 588.804C849.892 1030.1 599.453 1145.83 408.061 1051.06c-191.351-94.761-251.185-364.094-133.59-601.563C392.067 211.986 642.505 96.256 833.898 191.02c191.392 94.764 251.182 364.097 133.589 601.566M784.962 183.727c-190.315-71.353-418.047 66.587-508.584 308.076-90.538 241.53-9.655 495.159 180.66 566.507 190.315 71.36 418.047-66.583 508.584-308.071 90.538-241.53 9.655-495.16-180.66-566.512m174.404 526.485C895.43 952.777 692.104 1109.49 505.228 1060.22S218.699 774.396 282.634 531.83s267.262-399.277 454.138-350.009S1023.3 467.646 959.366 710.212M689.867 185.094c-181.241-28.632-359.001 143.327-397.039 384.111s78.023 459.155 259.306 487.785 359-143.328 397.038-384.112-78.023-459.152-259.305-487.784m245.632 453.475c-13.177 236.309-164.667 419.991-338.366 410.341-173.699-9.7-303.85-209.087-290.673-445.396s164.666-419.994 338.366-410.34c173.699 9.696 303.849 209.086 290.673 445.395M602.147 205.771c-164.542 7.458-289.513 199.431-279.113 428.779 10.401 229.347 152.236 409.22 316.778 401.76s289.513-199.429 279.112-428.777-152.235-409.221-316.777-401.762m77.568 813.839c-154.018 22.71-305.217-137.357-337.62-357.464-32.444-220.108 66.132-416.97 220.19-439.677 154.018-22.706 305.217 137.36 337.62 357.468 32.444 220.108-66.132 416.97-220.19 439.673M525.532 242.814c-142.457 35.967-215.218 234.445-162.471 443.282 52.748 208.837 210.992 349.014 353.449 313.048C858.966 963.178 931.728 764.7 878.98 555.863S667.988 206.848 525.532 242.814m224.209 732.712c-130.108 47.234-293.242-73.176-364.346-269.002S362.108 313.67 492.217 266.433s293.242 73.176 364.346 269.002 23.287 392.854-106.822 440.091m-287.026-682.74c-117.222 56.519-141.421 249.32-54.033 430.561 87.389 181.24 253.298 282.383 370.562 225.825 117.222-56.518 141.421-249.319 54.032-430.56S579.978 236.226 462.715 292.786m346.777 212.525c37.955 61.905 61.449 126.628 70.524 186.793.829 4.102 1.45 8.204 1.865 12.224 1.574 8.66 2.444 17.113 2.569 25.317.663 8.536.745 16.823.248 24.903-.124 7.914-.663 15.621-1.699 23.121a215 215 0 0 1-2.444 17.61c-8.992 55.11-34.268 99.902-75.745 125.344-104.129 63.894-270.825-18.48-372.343-183.975-37.956-61.906-61.45-126.628-70.524-186.793a128 128 0 0 1-1.865-12.224c-1.574-8.66-2.445-17.113-2.569-25.317-.663-8.536-.746-16.823-.249-24.903.125-7.915.663-15.622 1.699-23.122a214 214 0 0 1 2.445-17.61c8.992-55.11 34.268-99.902 75.745-125.343 104.128-63.895 270.825 18.48 372.343 183.975m72.927 276.336a234 234 0 0 1-1.864 13.591c-7.21 39.737-25.152 72.886-54.24 95.054-90.952 69.364-256.654 4.972-370.064-143.783-36.92-48.438-63.77-99.902-80.013-149.625q2.61 6.278 6.091 12.555c2.693 6.423 6.216 12.846 10.566 19.185 20.594 42.306 49.765 84.985 86.767 124.557 122.982 131.393 285.949 178.713 363.973 105.661 21.133-19.765 33.853-46.367 38.743-77.236zM359.539 460.27a234 234 0 0 1 1.865-13.591c7.21-39.737 25.152-72.886 54.24-95.054 90.951-69.364 256.654-4.972 370.064 143.783 36.919 48.438 63.77 99.902 80.013 149.625a125 125 0 0 0-6.091-12.555c-2.694-6.423-6.216-12.845-10.567-19.185-20.593-42.306-49.764-84.985-86.766-124.556-122.982-131.394-285.95-178.714-363.974-105.662-21.132 19.765-33.853 46.367-38.742 77.237zm524.538 301.488c-.166 5.386-.539 10.69-1.036 15.87-.166 1.367-.373 2.693-.58 4.019.663-6.05 1.16-12.182 1.491-18.439.042-.497.125-.994.166-1.492zM357.882 480.159c.166-5.386.539-10.69 1.036-15.87.166-1.367.373-2.693.58-4.019a329 329 0 0 0-1.492 18.439c-.041.497-.124.995-.165 1.492zm526.485 257.939q.497 8.328.373 16.409a205 205 0 0 1-.622 7.251c.083-2.403.124-4.848.166-7.293q.124-6.961 0-14.047l.124-2.279zm-526.734-234.32a220 220 0 0 1-.373-16.409c.166-2.445.373-4.848.622-7.251-.083 2.403-.124 4.848-.166 7.293q-.125 6.96 0 14.046l-.124 2.279zM884.077 742.78c.124 3.937.207 7.79.165 11.644-.083 2.942-.165 5.884-.331 8.784-2.983 24.406-11.809 46.077-27.058 63.563-65.51 75.04-224.168 43.756-354.443-69.903-36.049-31.449-66.131-65.883-89.418-100.896 3.107 3.605 6.671 7.168 10.607 10.566 2.611 2.983 5.636 5.884 8.992 8.66 25.11 29.213 55.897 57.389 91.449 82.582 135.288 95.841 288.353 112.291 341.888 36.754 10.649-15 16.533-32.528 18.107-51.712zM357.923 499.096c-.124-3.937-.207-7.79-.165-11.644.083-2.942.165-5.884.331-8.784 2.984-24.406 11.809-46.077 27.058-63.563 65.51-75.04 224.168-43.756 354.443 69.902 36.049 31.45 66.131 65.883 89.418 100.897-3.107-3.605-6.671-7.169-10.607-10.566-2.611-2.984-5.636-5.884-8.992-8.66-25.11-29.213-55.897-57.389-91.449-82.582-135.288-95.841-288.352-112.292-341.888-36.754-10.649 15-16.533 32.527-18.107 51.712zm1.534 29.502c0 .704.041 1.409.082 2.113-.124-1.367-.29-2.735-.372-4.102.082.663.207 1.326.29 1.989m523.045 184.68c0-.705-.041-1.409-.083-2.113.125 1.367.29 2.734.415 4.102-.083-.663-.208-1.326-.29-1.989zM359.125 526.609a195 195 0 0 1-1.657-14.337c-.042-2.859 0-5.677.124-8.494.083 1.74.207 3.439.373 5.179.248 5.801.621 11.685 1.16 17.611zm523.667 188.658a195 195 0 0 1 1.658 14.337c.041 2.859 0 5.676-.125 8.494a109 109 0 0 0-.373-5.18 368 368 0 0 0-1.16-17.61zm-.29 4.019c.622 4.599 1.119 9.116 1.45 13.632.125 2.487.166 5.014.249 7.5-.041.788-.124 1.616-.166 2.404-.248-7.127-.787-14.379-1.574-21.754 0-.58.041-1.16.041-1.74zM359.415 522.59c-.621-4.6-1.119-9.116-1.45-13.633-.124-2.486-.166-5.013-.249-7.5.042-.787.125-1.616.166-2.403.249 7.127.787 14.378 1.575 21.754 0 .58-.042 1.16-.042 1.74zM876.867 679.3a168 168 0 0 1 3.149 12.763c.456 2.942.829 5.842 1.243 8.784-.829-4.144-1.823-8.287-2.942-12.514-.331-2.983-.829-5.966-1.409-9.033zM365.092 562.534a168 168 0 0 1-3.149-12.762c-.456-2.942-.829-5.843-1.243-8.785.828 4.144 1.823 8.287 2.942 12.514.331 2.983.828 5.967 1.408 9.033zm516.167 138.313c.249 1.16.456 2.32.663 3.439.249 2.321.414 4.6.539 6.879a292 292 0 0 0-1.202-10.318M360.741 541.029c-.249-1.16-.456-2.321-.663-3.439-.249-2.321-.414-4.6-.539-6.879.332 3.439.746 6.879 1.202 10.318m518.156 155.302c0-.456 0-.912-.041-1.409 1.491 6.174 2.735 12.306 3.688 18.314.041 2.031.082 4.02 0 6.009a241 241 0 0 0-1.616-10.525c-.581-4.102-1.285-8.246-2.031-12.389M363.103 545.545c0 .456 0 .912.041 1.409-1.491-6.174-2.734-12.306-3.687-18.315-.042-2.03-.083-4.019 0-6.008.455 3.481.994 7.003 1.616 10.525a481 481 0 0 0 2.03 12.431zm517.825 163.216c.621 4.144 1.118 8.205 1.574 12.307-.58 14.958-4.309 28.963-11.436 41.56-42.306 74.709-188.575 71.808-326.64-6.423-35.096-19.889-66.297-42.72-92.609-66.96a88 88 0 0 0 6.506 3.522c3.522 2.486 7.582 4.724 12.14 6.671 27.017 19.724 58.259 37.831 92.734 52.997 138.81 61.035 277.206 51.67 309.153-20.925 4.6-10.401 6.713-21.547 6.63-33.191a331 331 0 0 1 2.03 10.484zM361.073 533.156c-.622-4.144-1.119-8.204-1.575-12.307.58-14.958 4.309-28.963 11.436-41.56 42.306-74.709 188.575-71.808 326.64 6.423 35.096 19.889 66.297 42.72 92.609 66.96a88 88 0 0 0-6.506-3.522c-3.522-2.486-7.582-4.724-12.14-6.671-27.016-19.724-58.259-37.831-92.734-52.997-138.81-61.035-277.206-51.67-309.153 20.926-4.6 10.4-6.713 21.546-6.63 33.19a331 331 0 0 1-2.03-10.483zm510.614 130.937a90 90 0 0 0-2.237-8.867c3.356 8.163 5.884 16.202 7.458 24.116a170 170 0 0 0-5.221-15.249m-501.374-86.269a90 90 0 0 0 2.237 8.867c-3.356-8.163-5.884-16.201-7.458-24.116a170 170 0 0 0 5.221 15.249m-1.078-6.713a57 57 0 0 0 .663 4.392c-.828-3.149-1.657-6.298-2.403-9.447.58 1.699 1.16 3.398 1.782 5.055zm503.53 99.695c-.166-1.45-.373-2.9-.663-4.392.828 3.149 1.657 6.298 2.403 9.447-.58-1.699-1.16-3.398-1.782-5.055zm1.781 5.055a214 214 0 0 1 3.771 12.514c.249 2.196.414 4.433.539 6.588-.29-1.201-.58-2.445-.912-3.688-.994-5.096-2.155-10.234-3.398-15.414M367.495 566.056a214 214 0 0 1-3.771-12.514 121 121 0 0 1-.538-6.588c.29 1.202.621 2.445.911 3.688.995 5.096 2.155 10.235 3.398 15.414m1.367.953c-1.781-5.511-3.397-10.98-4.765-16.367-.331-1.699-.663-3.398-.953-5.055v-1.948a333 333 0 0 0 5.76 22.997v.415zm504.276 107.899c1.781 5.511 3.397 10.981 4.765 16.367.331 1.699.663 3.398.953 5.056v1.947a333 333 0 0 0-5.76-22.997v-.414zm-498.889-84.239c.663 2.072 1.326 4.144 1.989 6.257a105 105 0 0 1-3.688-10.235 165 165 0 0 0 1.699 3.978m493.46 60.579c-.662-2.072-1.326-4.143-1.988-6.257a105 105 0 0 1 3.687 10.235 158 158 0 0 0-1.699-3.978m-490.062-56.85a82 82 0 0 0 1.657 6.63c-1.823-3.481-3.522-6.92-5.055-10.359-1.16-3.729-2.237-7.458-3.315-11.188a213 213 0 0 0 6.713 14.917m486.665 53.08a82 82 0 0 0-1.658-6.63c1.823 3.48 3.522 6.92 5.055 10.359 1.161 3.729 2.238 7.458 3.315 11.188a213 213 0 0 0-6.712-14.917m7.79 18.936c-.373-1.326-.705-2.652-1.078-4.019.208.58.456 1.118.663 1.698.166.788.29 1.534.415 2.321m-502.245-90.911c.373 1.326.704 2.652 1.077 4.02-.207-.58-.455-1.119-.663-1.699a46 46 0 0 1-.414-2.321m7.044 14.503c.083.704.207 1.367.29 2.072-.911-2.486-1.823-4.973-2.693-7.459.787 1.782 1.574 3.605 2.362 5.387zm488.115 61.905c-.083-.704-.207-1.367-.29-2.072a535 535 0 0 1 2.693 7.459c-.787-1.782-1.574-3.605-2.361-5.387zm7.251 20.428a368 368 0 0 0-4.848-15 238 238 0 0 1 5.304 13.467q.249 2.051.373 4.102c-.29-.87-.58-1.699-.87-2.569zM369.691 569.578a371 371 0 0 0 4.848 15 239 239 0 0 1-5.304-13.467 69 69 0 0 1-.373-4.102c.291.87.581 1.699.871 2.569zm0 0-.87-2.983c-.58-9.033.456-17.859 3.191-26.354 22.541-69.529 152.277-89.75 289.761-45.165 33.687 10.939 64.723 24.696 92.029 40.359-2.362-.705-4.848-1.285-7.458-1.823-2.777-1.078-5.801-1.906-9.116-2.487-27.306-11.892-57.886-21.795-90.662-28.839-134.377-28.964-254.748.663-268.878 66.215-1.408 6.588-1.699 13.259-.953 20.013a310 310 0 0 1-7.044-18.894zm502.576 102.761.871 2.984c.58 9.033-.456 17.858-3.191 26.353-22.541 69.529-152.277 89.75-289.761 45.165-33.688-10.939-64.723-24.696-92.03-40.359 2.362.705 4.849 1.285 7.459 1.824 2.776 1.077 5.801 1.906 9.116 2.486 27.306 11.892 57.886 21.795 90.662 28.839 134.376 28.964 254.748-.663 268.877-66.214 1.409-6.589 1.699-13.26.953-20.014 2.611 6.34 4.931 12.638 7.044 18.895zm-478.004-41.767c-.456-.663-.912-1.285-1.368-1.948-1.326-2.693-2.569-5.386-3.812-8.08.456.705.953 1.409 1.45 2.155a80 80 0 0 0 3.73 7.873m453.433-19.227c.456.663.912 1.285 1.367 1.948 1.326 2.693 2.569 5.387 3.812 8.08-.455-.704-.953-1.409-1.45-2.155a80 80 0 0 0-3.729-7.873m-458.613 9.241c-2.444-3.688-4.723-7.417-6.754-11.105-1.16-2.818-2.196-5.635-3.025-8.412a201 201 0 0 0 5.138 9.075 386 386 0 0 0 4.641 10.442m463.792.787c2.445 3.688 4.724 7.417 6.755 11.105 1.16 2.817 2.196 5.635 3.024 8.411a201 201 0 0 0-5.138-9.074 381 381 0 0 0-4.641-10.442m.746 4.226a142 142 0 0 1 3.895 6.257c1.741 4.02 3.357 8.039 4.931 12.017a245 245 0 0 0-7.707-13.84 41 41 0 0 0-1.119-4.434m-465.284-9.198a143 143 0 0 1-3.895-6.257c-1.74-4.019-3.356-8.039-4.93-12.017a244 244 0 0 0 7.707 13.84c.29 1.492.663 2.983 1.118 4.434m476.389 33.48c-.746-1.989-1.492-4.019-2.279-6.008.622 1.243 1.243 2.444 1.865 3.687.165.788.29 1.575.414 2.321m-487.493-57.762c.745 1.989 1.491 4.02 2.279 6.008-.622-1.243-1.244-2.444-1.865-3.687-.166-.788-.29-1.575-.414-2.321m477.88 39.986c-.083-.539-.207-1.077-.29-1.616a341 341 0 0 1 5.345 11.188 350 350 0 0 0-5.014-9.572zm-468.267-22.21c.083.539.207 1.078.29 1.616a342 342 0 0 1-5.346-11.187 357 357 0 0 0 5.014 9.571zm478.377 43.591a361 361 0 0 0-5.096-11.768 231 231 0 0 1 4.889 10.276c.083.497.124.995.207 1.533zm-488.488-64.93a361 361 0 0 0 5.097 11.768 231 231 0 0 1-4.889-10.277c-.083-.497-.125-.994-.208-1.533zm27.017 53.991a72 72 0 0 0 4.35 7.21c-5.635-6.216-10.317-12.597-13.839-19.102 2.859 4.019 6.008 7.955 9.489 11.892m434.455-43.052a72 72 0 0 0-4.351-7.21c5.636 6.215 10.318 12.596 13.84 19.102-2.859-4.019-6.008-7.956-9.489-11.892m-437.149 37.126c.166.498.373.953.58 1.451a86 86 0 0 1-1.533-2.611c.332.373.663.787.953 1.16m439.801-31.201c-.166-.497-.373-.953-.58-1.45.539.87 1.036 1.74 1.533 2.61a24 24 0 0 1-.953-1.16m-440.795 30.041c-3.439-4.226-6.671-8.453-9.572-12.679a76 76 0 0 1-2.196-6.34 206 206 0 0 0 5.801 8.494c1.906 3.523 3.936 7.045 5.967 10.567zm441.748-28.881c3.439 4.227 6.671 8.453 9.572 12.68.87 2.113 1.574 4.226 2.196 6.339a207 207 0 0 0-5.801-8.494c-1.906-3.522-3.937-7.044-5.967-10.566zm-442.204 25.732a286 286 0 0 1-5.511-7.417 317 317 0 0 1-6.133-11.685 286 286 0 0 0 8.371 12.97 266 266 0 0 0 2.817 4.475c.124.538.29 1.118.456 1.657m442.66-22.624a286 286 0 0 1 5.511 7.417 317 317 0 0 1 6.132 11.685 285 285 0 0 0-8.37-12.969c-.911-1.492-1.864-2.984-2.817-4.476a25 25 0 0 0-.456-1.657m11.643 19.102.746 1.243c0 .166.042.29.083.456-.29-.58-.539-1.119-.829-1.699m-465.988-15.621-.746-1.243c0-.166-.041-.29-.083-.456.29.58.539 1.119.829 1.699m454.925-1.202a214 214 0 0 1 2.693 3.854c3.398 5.428 6.547 10.856 9.531 16.284a52.9 52.9 0 0 1 .455 15.124c-6.795 60.911-117.388 98.576-246.916 84.073-31.906-3.563-61.947-9.944-89.088-18.48 3.771.414 7.915.456 12.39.124 26.975 5.553 56.684 8.743 87.968 9.075 123.272 1.284 223.671-42.886 224.251-98.701a49.7 49.7 0 0 0-1.284-11.353m-443.862 18.066c-.911-1.284-1.823-2.569-2.693-3.853-3.398-5.429-6.547-10.857-9.53-16.285a52.9 52.9 0 0 1-.456-15.124c6.796-60.911 117.388-98.576 246.917-84.073 31.905 3.563 61.946 9.944 89.087 18.48-3.771-.414-7.914-.456-12.389-.124-26.975-5.553-56.685-8.743-87.969-9.075-123.272-1.284-223.671 42.886-224.251 98.701a49.7 49.7 0 0 0 1.284 11.353m11.561 22.334c.787 1.202 1.575 2.445 2.403 3.646a83 83 0 0 1-4.889-6.298c.787.87 1.616 1.782 2.486 2.652m420.782-62.734c-.787-1.202-1.575-2.445-2.404-3.646a83 83 0 0 1 4.89 6.298 73 73 0 0 0-2.486-2.652m-5.055-2.403a54 54 0 0 0-3.067-5.387 147 147 0 0 1 8.122 7.79 797 797 0 0 1 4.889 7.666c-3.108-3.398-6.381-6.754-9.944-10.069m-410.672 67.54a54 54 0 0 0 3.066 5.387c-2.9-2.569-5.593-5.18-8.121-7.79a797 797 0 0 1-4.889-7.666c3.107 3.398 6.381 6.754 9.944 10.069m424.677-50.842c-1.326-2.237-2.693-4.433-4.061-6.671.663.746 1.326 1.451 1.948 2.196.787 1.492 1.45 2.984 2.113 4.475M401.638 638.03c1.326 2.238 2.694 4.434 4.061 6.671-.663-.745-1.326-1.45-1.947-2.196-.788-1.491-1.451-2.983-2.114-4.475m12.265 12.68c.332.828.663 1.698 1.036 2.527a285 285 0 0 1-4.475-6.091 141 141 0 0 0 3.439 3.564m414.152-59.502c-.331-.829-.663-1.699-1.036-2.528a285 285 0 0 1 4.476 6.091 138 138 0 0 0-3.44-3.563m10.442 13.591a307 307 0 0 0-6.961-9.986 199 199 0 0 1 9.364 10.566 53 53 0 0 1 1.451 4.309 197 197 0 0 0-3.854-4.848zm-434.994 32.32a310 310 0 0 0 6.961 9.986 199 199 0 0 1-9.364-10.566 53 53 0 0 1-1.451-4.31 197 197 0 0 0 3.854 4.848zm9.655 11.312v.082c-.208-.248-.373-.455-.581-.704.166.207.373.414.539.622zm415.726-54.903v-.083c.207.249.373.456.58.705-.166-.208-.373-.415-.539-.622zm9.655 11.271c1.45 2.154 2.9 4.35 4.267 6.505.042.207.083.414.166.622a321 321 0 0 0-13.549-17.818 299 299 0 0 1 9.116 10.691m-434.995 32.32c-1.45-2.155-2.9-4.351-4.268-6.506a3.4 3.4 0 0 0-.165-.621c4.185 5.966 8.701 11.892 13.549 17.817a299 299 0 0 1-9.116-10.69m398.034-76.16c2.776 1.865 5.386 3.771 7.831 5.76 1.202 1.409 2.445 2.859 3.605 4.268-1.989-1.533-4.061-3.025-6.174-4.517a55 55 0 0 0-5.262-5.552zM440.464 680.958c-2.776-1.865-5.387-3.771-7.832-5.76-1.201-1.409-2.444-2.859-3.605-4.268 1.989 1.533 4.061 3.025 6.174 4.517a55 55 0 0 0 5.263 5.552zm-11.437-10.028c-1.864-1.45-3.646-2.9-5.386-4.392-1.823-2.072-3.481-4.226-4.89-6.422a151 151 0 0 0 4.724 4.019 283 283 0 0 0 5.552 6.754zm383.987-99.943c1.865 1.45 3.646 2.9 5.387 4.392 1.823 2.072 3.48 4.227 4.889 6.423a150 150 0 0 0-4.724-4.02 283 283 0 0 0-5.552-6.754zm-381.21 99.612a170 170 0 0 1-8.329-6.464c-2.155-2.652-4.226-5.345-6.298-7.997 3.356 3.107 6.92 6.174 10.649 9.24a152 152 0 0 0 2.527 2.693c.456.87.912 1.699 1.409 2.528zm378.475-99.281a170 170 0 0 1 8.329 6.464c2.155 2.652 4.226 5.346 6.298 7.997-3.356-3.107-6.92-6.173-10.649-9.24a156 156 0 0 0-2.527-2.693 50 50 0 0 0-1.409-2.528zm-395.257 81.919c.746.995 1.45 1.948 2.196 2.942-.497-.456-.994-.953-1.491-1.409-.249-.497-.456-.994-.705-1.491zm412.08-64.516c-.746-.994-1.45-1.947-2.196-2.942.497.456.995.954 1.492 1.409.248.498.456.995.704 1.492zm-14.834-13.715c.663.539 1.326 1.036 1.948 1.575a350 350 0 0 1 7.5 8.37c-2.735-2.611-5.594-5.18-8.495-7.749-.29-.746-.621-1.45-.953-2.196m-382.412 91.988c-.663-.539-1.326-1.036-1.947-1.575a348 348 0 0 1-7.5-8.37c2.735 2.611 5.594 5.18 8.494 7.749.29.746.622 1.45.953 2.196m399.028-73.549c-2.32-2.859-4.724-5.677-7.168-8.494a232 232 0 0 1 6.422 6.298c.29.746.539 1.45.746 2.196m-415.644 55.11c2.321 2.859 4.724 5.677 7.169 8.494a231 231 0 0 1-6.423-6.298c-.29-.746-.538-1.45-.746-2.196m13.881 10.069a39 39 0 0 0 1.741 6.05c-5.511-5.346-10.774-10.774-15.663-16.202-.829-2.735-1.409-5.552-1.657-8.411-4.558-50.345 85.523-99.654 201.254-110.179 29.668-2.693 58.093-2.569 84.115-.082-1.741.29-3.564.663-5.387 1.077q-2.673.186-5.718.87c-25.027.166-52.251 2.859-80.427 8.329-107.112 20.759-186.918 73.838-178.258 118.548m387.882-75.248a39 39 0 0 0-1.74-6.049c5.511 5.345 10.773 10.773 15.662 16.201.829 2.735 1.409 5.552 1.658 8.412 4.558 50.344-85.524 99.653-201.254 110.178-29.668 2.693-58.093 2.569-84.115.083a96 96 0 0 0 5.386-1.078q2.673-.186 5.719-.87c25.027-.166 52.25-2.859 80.427-8.329 107.112-20.759 186.917-73.838 178.257-118.548m-20.594-26.809c-1.367-1.284-2.734-2.569-4.143-3.853 4.268 2.569 8.08 5.303 11.353 8.287-2.279-1.533-4.682-2.984-7.21-4.434M447.715 685.433c1.367 1.284 2.735 2.569 4.144 3.853-4.268-2.569-8.08-5.303-11.354-8.287 2.279 1.533 4.682 2.984 7.21 4.434m1.45-1.409a34 34 0 0 0 3.647 4.144 287 287 0 0 1-5.097-2.735 775 775 0 0 1-5.925-5.718c2.362 1.45 4.848 2.9 7.375 4.309m343.794-126.048a34 34 0 0 0-3.646-4.144q2.61 1.368 5.096 2.735a794 794 0 0 1 5.926 5.718 204 204 0 0 0-7.376-4.309m7.376 4.309a303 303 0 0 1 6.547 4.227 47 47 0 0 1 3.439 4.806c-1.078-.787-2.155-1.574-3.232-2.32-2.196-2.238-4.434-4.517-6.713-6.713zm-358.587 117.43a303 303 0 0 1-6.547-4.227 47 47 0 0 1-3.439-4.806c1.078.787 2.155 1.574 3.232 2.32 2.196 2.238 4.434 4.517 6.713 6.713zm5.263 1.077s.207.373.331.58c-.539-.456-1.036-.87-1.574-1.326zm348.061-119.584s-.207-.373-.331-.58c.539.456 1.036.87 1.574 1.326zM445.768 680.005c-3.73-2.321-7.293-4.641-10.691-7.044-1.574-1.616-3.149-3.232-4.641-4.89a14 14 0 0 1-.538-1.118 282 282 0 0 0 8.162 6.215 441 441 0 0 0 7.79 6.837zm350.547-118.051c3.73 2.32 7.293 4.641 10.691 7.044 1.574 1.616 3.149 3.232 4.641 4.889.207.373.373.746.538 1.119a279 279 0 0 0-8.163-6.215 438 438 0 0 0-7.789-6.837zm-350.34 116.849a243 243 0 0 1-7.956-5.635 490 490 0 0 1-8.163-7.583 308 308 0 0 0 16.036 13.011c0 .083.083.124.083.207M796.15 563.156a244 244 0 0 1 7.955 5.635 482 482 0 0 1 8.163 7.583 307 307 0 0 0-16.035-13.011c0-.083-.083-.125-.083-.207m16.118 13.218c.332.29.622.538.953.828 0 .042 0 .083.042.125-.332-.332-.663-.622-.995-.953m-382.412 89.253c-.331-.291-.621-.539-.953-.829 0-.042 0-.083-.041-.124.331.331.663.621.994.953M765.28 540.076a88 88 0 0 1 6.34 2.444c1.45 1.036 2.859 2.114 4.268 3.15a101 101 0 0 0-4.931-1.865c-1.699-1.367-3.605-2.611-5.677-3.729M476.803 701.924a88 88 0 0 1-6.34-2.444c-1.45-1.036-2.859-2.114-4.268-3.149 1.616.663 3.274 1.284 4.931 1.864 1.699 1.368 3.605 2.611 5.677 3.729m-10.649-5.593c-2.735-1.119-5.345-2.279-7.831-3.523a48 48 0 0 1-5.553-4.64 202 202 0 0 0 7.293 3.522c1.989 1.574 4.061 3.107 6.091 4.641M775.888 545.67c2.734 1.118 5.345 2.278 7.831 3.522a48 48 0 0 1 5.552 4.64 203 203 0 0 0-7.292-3.522c-1.989-1.574-4.061-3.107-6.091-4.64m-1.202 1.574c2.486.995 4.931 2.03 7.293 3.066 2.32 1.824 4.64 3.647 6.878 5.47-3.398-1.782-6.92-3.481-10.525-5.18-.58-.414-1.201-.787-1.782-1.201a31 31 0 0 0-1.864-2.196zm-307.33 147.512a243 243 0 0 1-7.293-3.066c-2.32-1.823-4.641-3.647-6.878-5.47 3.397 1.782 6.919 3.481 10.524 5.18.58.414 1.202.787 1.782 1.201.58.746 1.202 1.492 1.865 2.196zm327.385-134.128c-1.906-1.616-3.895-3.232-5.843-4.848 1.368.704 2.694 1.45 4.02 2.196.663.87 1.284 1.782 1.823 2.693zm-347.44 120.703c1.906 1.616 3.895 3.232 5.842 4.848a126 126 0 0 1-4.019-2.196 28 28 0 0 1-1.823-2.694zm17.776 10.649c-.456-.207-.912-.415-1.409-.622a293 293 0 0 1-7.873-5.428 217 217 0 0 0 8.163 4.351c.331.58.704 1.119 1.119 1.699m311.846-142.001c.456.207.912.414 1.409.621 2.694 1.782 5.304 3.605 7.873 5.429a217 217 0 0 0-8.163-4.351c-.331-.58-.704-1.119-1.119-1.699m17.569 12.099a269 269 0 0 0-8.328-6.049 289 289 0 0 1 8.825 5.138c.373.663.705 1.284 1.036 1.947-.538-.373-1.036-.704-1.574-1.077zM447.508 679.88a269 269 0 0 0 8.328 6.05 294 294 0 0 1-8.825-5.138 44 44 0 0 1-1.036-1.947c.538.373 1.036.704 1.574 1.077zm0 0a25 25 0 0 1-1.658-1.284 32.5 32.5 0 0 1-1.698-4.351c-11.768-39.032 57.886-94.515 155.591-123.976 26.892-8.121 53.121-13.384 77.237-15.953-.787.29-1.533.58-2.32.912q-3.17.808-6.713 2.362c-22.624 4.806-47.154 12.389-72.099 22.748-87.678 36.422-147.47 93.065-133.589 126.545a23.6 23.6 0 0 0 1.616 3.232c-5.677-3.356-11.146-6.754-16.367-10.276zm346.984-117.802c.58.414 1.119.829 1.658 1.285a33 33 0 0 1 1.699 4.35c11.767 39.033-57.886 94.516-155.592 123.977-26.892 8.121-53.121 13.383-77.237 15.953a56 56 0 0 0 2.321-.912q3.17-.808 6.712-2.362c22.624-4.806 47.154-12.389 72.099-22.748 87.678-36.422 147.47-93.065 133.589-126.545a23.5 23.5 0 0 0-1.616-3.233c5.677 3.357 11.146 6.755 16.367 10.277zm-36.546-24.24-4.102-2.362c4.226 1.243 8.038 2.777 11.394 4.6a108 108 0 0 0-7.292-2.196zM484.054 704.12l4.102 2.362c-4.226-1.243-8.038-2.776-11.394-4.599 2.32.787 4.765 1.533 7.292 2.196zm1.989-1.367a30 30 0 0 0 3.812 2.776c-1.989-.414-3.895-.911-5.801-1.409-2.03-1.201-4.019-2.403-6.008-3.604 2.611.787 5.263 1.533 8.039 2.237zm269.872-163.547a30 30 0 0 0-3.812-2.777c1.989.415 3.895.912 5.801 1.409a758 758 0 0 1 6.009 3.605 187 187 0 0 0-8.039-2.237zm8.039 2.237c2.403.746 4.724 1.492 6.961 2.32a33 33 0 0 1 3.729 3.44 102 102 0 0 0-3.812-1.451c-2.279-1.45-4.558-2.9-6.919-4.309zM478.046 700.516c-2.403-.746-4.724-1.492-6.961-2.321a33 33 0 0 1-3.729-3.439c1.243.497 2.527.994 3.812 1.45 2.279 1.45 4.558 2.901 6.92 4.31zm5.76 0c.248.29.538.621.828.911-1.118-.539-2.196-1.119-3.273-1.657.829.248 1.616.497 2.445.787zm274.388-159.032c-.248-.29-.538-.621-.828-.911 1.118.539 2.196 1.119 3.273 1.657a55 55 0 0 1-2.445-.787zm2.445.788c3.522 1.119 6.92 2.279 10.193 3.522 1.906 1.201 3.771 2.445 5.636 3.688.124.165.248.373.414.58a199 199 0 0 0-8.453-3.605c-2.569-1.409-5.179-2.776-7.79-4.144zM481.32 699.77c-3.522-1.119-6.92-2.279-10.194-3.522a190 190 0 0 1-5.635-3.688c-.124-.166-.249-.373-.414-.58a200 200 0 0 0 8.453 3.605c2.569 1.408 5.179 2.776 7.79 4.143zm1.367-.58c-3.108-1.161-6.174-2.321-9.157-3.522-2.777-1.534-5.553-3.067-8.246-4.641a310 310 0 0 0 17.403 8.163m276.626-156.297c3.108 1.161 6.174 2.321 9.158 3.522 2.776 1.533 5.552 3.067 8.245 4.641a310 310 0 0 0-17.403-8.163m17.403 8.163c.456.207.87.456 1.326.663 0 .042.083.083.083.166-.456-.29-.953-.539-1.409-.829M465.284 691.027c-.456-.207-.87-.456-1.326-.663 0-.042-.083-.083-.083-.166.456.29.953.539 1.409.829M727.615 530.09c3.439.207 6.629.58 9.654 1.118 1.202.498 2.362 1.036 3.564 1.575a135 135 0 0 0-7.542-.829 35 35 0 0 0-5.676-1.864M514.427 711.993c-3.439-.207-6.63-.58-9.655-1.118-1.201-.498-2.362-1.036-3.563-1.575 2.445.331 4.931.622 7.541.829a35 35 0 0 0 5.677 1.864m226.406-179.21c1.906.29 3.77.58 5.594.953a32.3 32.3 0 0 1 5.759 2.818 187 187 0 0 0-5.511-1.078c-1.906-.911-3.853-1.781-5.801-2.652zM501.25 709.341c-1.906-.29-3.77-.58-5.594-.953a32.3 32.3 0 0 1-5.759-2.817c1.782.373 3.646.746 5.511 1.077 1.906.912 3.853 1.782 5.801 2.652zm3.812-1.243c-3.315-.373-6.505-.87-9.613-1.408-2.279-1.036-4.516-2.114-6.754-3.191 3.149.746 6.381 1.45 9.696 2.072a227 227 0 0 0 6.34 2.32c.083.083.207.124.331.207m232-174.072c3.315.373 6.505.87 9.613 1.409 2.279 1.036 4.517 2.113 6.754 3.19a210 210 0 0 0-9.696-2.071 225 225 0 0 0-6.339-2.321c-.125-.083-.208-.124-.332-.207m20.387 6.63c-1.326-.663-2.694-1.326-4.02-1.989.87.207 1.74.414 2.569.663.497.414.995.87 1.451 1.367zM484.717 701.51c1.326.663 2.694 1.326 4.02 1.989-.871-.207-1.741-.414-2.569-.663-.498-.414-.995-.87-1.451-1.367zM739.3 535.808c1.491.248 2.983.497 4.433.787 2.569.953 5.097 1.948 7.583 2.942-2.9-.787-5.801-1.533-8.826-2.238-.787-.248-1.574-.455-2.362-.704-.248-.29-.538-.539-.828-.787M502.866 706.399a139 139 0 0 1-4.433-.787 319 319 0 0 1-7.583-2.942c2.9.788 5.801 1.533 8.826 2.238.787.248 1.574.456 2.362.704.248.29.538.539.828.787m-20.013-7.127c2.652 1.161 5.303 2.238 7.997 3.357a342 342 0 0 1-7.003-2.031l-1.119-1.367h.083zm276.46-156.379c-2.652-1.16-5.304-2.237-7.997-3.356 2.362.663 4.682 1.326 7.003 2.03l1.118 1.368h-.082zm-18.978-6.091c.705.166 1.451.332 2.155.497 5.801 1.741 11.436 3.647 16.823 5.594h.083a19 19 0 0 1 1.699 2.652c15.207 28.177-35.179 84.82-112.499 126.504-23.369 12.597-46.532 22.375-67.872 29.171.87-.456 1.699-.995 2.611-1.492a39 39 0 0 0 3.978-2.196c19.64-8.453 40.938-20.096 62.236-34.516 66.836-45.331 108.314-100.813 92.61-124.018a19 19 0 0 0-1.824-2.237zM501.872 705.405c-.705-.166-1.45-.332-2.155-.497-5.801-1.741-11.436-3.647-16.823-5.594h-.083a19.4 19.4 0 0 1-1.699-2.652c-15.207-28.176 35.179-84.819 112.499-126.504 23.37-12.596 46.532-22.375 67.872-29.171-.87.456-1.699.995-2.611 1.492a39 39 0 0 0-3.977 2.196c-19.641 8.453-40.939 20.096-62.237 34.516-66.836 45.331-108.314 100.814-92.609 124.018.538.787 1.16 1.533 1.823 2.237zm15.497 6.796 2.362.745a46 46 0 0 1-5.18-.87c.912.042 1.865.083 2.818.125M724.88 530.048l-2.362-.746c1.823.208 3.563.498 5.18.87q-1.368-.061-2.86-.124zm-9.945.166h-.165l-.995-.249 1.119.249zm-5.594-.953c.29 0 .539-.042.829-.083l2.362.497c-.994-.207-2.072-.331-3.149-.414zM527.355 712.035h.166l.994.248-1.119-.248zm5.594.953c-.29 0-.539.041-.829.083l-2.362-.498c.995.208 2.072.332 3.149.415zM720.943 531.54c-1.988-.456-3.977-.912-6.008-1.368a116 116 0 0 1 9.945-.165c1.823.58 3.605 1.16 5.387 1.782a171 171 0 0 0-9.365-.249zM521.347 710.667c1.989.456 3.978.912 6.008 1.368-3.481.207-6.796.248-9.945.166a210 210 0 0 1-5.386-1.782c3.024.165 6.132.248 9.364.248zm208.92-178.878c1.035.041 2.071.124 3.107.207a20 20 0 0 1 3.729 2.072c-.124 0-.29 0-.414-.042a555 555 0 0 0-6.464-2.237zm-218.285 178.63c-1.036-.042-2.072-.125-3.108-.207a20.2 20.2 0 0 1-3.729-2.072c.125 0 .29 0 .415.041q3.169 1.119 6.464 2.238zm208.464-177.636a17 17 0 0 0-2.072-1.243h2.569c2.238.539 4.476 1.077 6.672 1.616-2.362-.166-4.724-.29-7.169-.373M521.844 709.424c.663.456 1.326.87 2.072 1.243h-2.569c-2.238-.538-4.475-1.077-6.672-1.616 2.362.166 4.724.29 7.169.373m-7.169-.373a160 160 0 0 1-9.157-.87c-.248-.083-.497-.165-.704-.248-.663-.456-1.285-.995-1.906-1.534 1.491.249 2.983.498 4.516.705 2.403.663 4.807 1.284 7.251 1.906zm212.898-175.854a159 159 0 0 1 9.158.871c.248.082.497.165.704.248.663.456 1.284.995 1.906 1.533-1.492-.248-2.983-.497-4.517-.704-2.403-.663-4.806-1.285-7.251-1.948m-6.298.249s-.373-.29-.58-.414c1.989.331 3.936.663 5.884.994a210 210 0 0 0-5.304-.58M520.974 708.844s.373.29.58.415a1695 1695 0 0 1-5.884-.995c1.74.207 3.522.414 5.304.58m-5.304-.58a247 247 0 0 1-8.287-1.119c-1.782-.497-3.564-.994-5.304-1.533l-.207-.207a262 262 0 0 0 13.798 2.818zm210.909-174.238c2.817.332 5.552.704 8.287 1.119 1.782.497 3.563.994 5.304 1.533l.207.207a261 261 0 0 0-13.798-2.817zm-25.732-3.688-3.853-.373c4.558-.746 8.701-.994 12.347-.663-2.693.208-5.552.58-8.494 1.078zm-167.898 182.65c2.693-.207 5.552-.58 8.494-1.078l3.854.373c-4.558.746-8.702.995-12.348.663zm12.596-1.823q-2.113.435-4.102.745c-1.823-.207-3.646-.414-5.428-.621 2.03-.249 4.102-.497 6.215-.829 1.036.332 2.155.539 3.315.705m151.158-180.081a87 87 0 0 1 4.103-.746c1.823.207 3.646.415 5.428.622-2.031.248-4.102.497-6.216.829-1.036-.332-2.154-.539-3.315-.705m15.746.663c-2.03-.29-4.102-.539-6.174-.787 2.942-.332 5.76-.58 8.536-.746 1.284.373 2.486.829 3.563 1.367-1.947 0-3.895.083-5.883.166zM529.8 710.502c2.03.29 4.102.538 6.174.787-2.942.331-5.76.58-8.536.746a21 21 0 0 1-3.564-1.368c1.948 0 3.895-.083 5.884-.165zm172.083-178.009c-.29-.124-.622-.29-.953-.414 1.284.041 2.528.082 3.812.165zM540.366 709.797c.29.125.621.29.953.415a118 118 0 0 1-3.812-.166zm-9.613-.124c2.237.166 4.475.29 6.754.373q-3.916.31-7.707.497c-2.279-.331-4.558-.663-6.796-.994 2.528.082 5.138.124 7.749.165zm180.743-177.014c-2.237-.166-4.475-.29-6.754-.373q3.916-.31 7.707-.497c2.279.331 4.558.662 6.796.994-2.528-.083-5.138-.124-7.749-.166zM521.554 709.3c.497.083.953.166 1.45.249h-1.16c-.083-.083-.166-.125-.29-.208zm199.141-176.268c-.497-.083-.953-.166-1.45-.249h1.16c.083.083.165.124.29.207zm-15.373 1.823a13.6 13.6 0 0 0-2.942-2.113c3.108-.083 6.133-.125 9.116-.125 3.315.207 6.547.498 9.779.829.787.622 1.533 1.326 2.155 2.113 15.538 18.605-17.652 71.974-74.171 119.253-19.309 16.16-38.825 29.502-56.808 39.322a78 78 0 0 0 3.895-3.066c16.325-10.939 34.184-25.897 51.587-43.715 46.491-47.651 72.182-98.037 57.348-112.498zm-168.395 172.58c.87.829 1.864 1.534 2.941 2.114-3.107.082-6.132.124-9.115.124a244 244 0 0 1-9.779-.829c-.788-.621-1.533-1.326-2.155-2.113-15.538-18.605 17.652-71.974 74.17-119.253 19.31-16.16 38.826-29.502 56.809-39.322a78 78 0 0 0-3.895 3.066c-16.326 10.939-34.185 25.897-51.588 43.715-46.491 47.651-72.181 98.037-57.347 112.498zm143.989-173.326c-1.243.124-2.527.249-3.812.373 3.108-1.119 6.008-1.989 8.743-2.611h2.321a96 96 0 0 0-7.252 2.238M561.374 708.181c1.243-.124 2.527-.248 3.812-.373-3.108 1.119-6.008 1.989-8.743 2.611h-2.321a96 96 0 0 0 7.252-2.238m-7.252 2.238c-1.16.331-2.278.58-3.397.87-1.823.124-3.564.124-5.138-.083 1.243-.249 2.527-.539 3.812-.829h4.723zm134.046-178.506c1.16-.332 2.279-.58 3.397-.87 1.824-.125 3.564-.125 5.138.082-1.243.249-2.527.539-3.812.829h-4.723zM559.841 707.684c.953.083 1.906.124 2.983 0-.456.166-.953.332-1.409.497-1.657.166-3.315.29-4.972.456a105 105 0 0 0 3.398-.953m122.65-172.995c-.953-.083-1.906-.124-2.983 0 .455-.166.953-.331 1.408-.497 1.658-.166 3.315-.29 4.973-.456-1.119.29-2.279.622-3.398.953m3.398-.953a132 132 0 0 1 7.002-1.74c1.906 0 3.771.041 5.636.124-2.321.373-4.641.787-7.044 1.243-1.865.124-3.73.249-5.636.414zM556.401 708.678a132 132 0 0 1-7.002 1.741c-1.906 0-3.771-.042-5.636-.125a250 250 0 0 0 7.045-1.243c1.864-.124 3.729-.248 5.635-.414zm1.948-1.201s.124 0 .207.041c-.456.083-.953.166-1.409.207.415-.082.788-.165 1.202-.29zM683.9 534.896s-.125 0-.207-.041c.455-.083.953-.166 1.408-.207a12 12 0 0 0-1.201.29zM543.763 710.294c-.497.083-1.035.166-1.533.249a8 8 0 0 1-.911-.331c.829 0 1.616.041 2.444.082m154.764-178.257c.497-.083 1.035-.166 1.533-.248.29.082.621.207.911.331-.828 0-1.616-.041-2.444-.083m-13.426 2.569c2.155-.497 4.268-.911 6.382-1.326 2.071-.124 4.143-.248 6.173-.331-4.102.455-8.287.994-12.555 1.657M557.147 707.725c-2.154.498-4.268.912-6.381 1.326-2.072.125-4.143.249-6.174.332a291 291 0 0 0 12.555-1.658m-17.279 1.865c1.575-.041 3.15-.124 4.724-.166-1.409.166-2.817.29-4.226.415zM702.38 532.783c-1.574.041-3.149.124-4.724.166 1.409-.166 2.818-.29 4.227-.415zM580.766 701.344c-2.279 1.243-4.475 2.362-6.547 3.232l-2.362.498a118 118 0 0 0 5.677-2.735c1.077-.332 2.154-.663 3.19-.995zm80.717-160.315c2.279-1.243 4.475-2.362 6.547-3.232l2.362-.498a117 117 0 0 0-5.677 2.735c-1.077.332-2.155.663-3.191.995zm8.909-3.73a175 175 0 0 1 4.35-1.864c1.658-.414 3.274-.705 4.724-.787-1.616.58-3.232 1.16-4.889 1.823-1.409.248-2.818.538-4.227.828zm-98.535 167.775a171 171 0 0 1-4.351 1.864c-1.657.414-3.273.705-4.723.787 1.616-.58 3.232-1.16 4.889-1.823a149 149 0 0 0 4.226-.828zm7.251-3.564c-.538.29-1.036.539-1.574.829l-4.227 1.243 3.357-1.492c.787-.124 1.574-.331 2.444-.58m84.032-160.647c.539-.29 1.036-.539 1.575-.829l4.226-1.243-3.356 1.492c-.787.124-1.575.331-2.445.58m-89.791 162.719a125 125 0 0 1-5.677 2.32c-1.657.332-3.315.622-4.931.912a225 225 0 0 0 5.718-1.865 760 760 0 0 1 4.89-1.367m95.592-164.791a125 125 0 0 1 5.677-2.32c1.658-.332 3.315-.622 4.931-.912a225 225 0 0 0-5.718 1.865 760 760 0 0 1-4.89 1.367m14.793-3.936c-1.367.207-2.776.456-4.185.704.994-.29 1.947-.58 2.9-.87.415.041.829.083 1.244.166zM562.741 706.814c-.994.29-1.947.58-2.9.87a13 13 0 0 1-1.243-.166c1.367-.207 2.776-.456 4.185-.704zm13.425-4.641c-2.486.332-4.599-.041-6.339-1.16-12.182-7.832.953-49.889 29.253-94.018 13.923-21.671 28.923-39.737 42.058-51.671-11.685 10.649-26.188 31.119-38.908 56.187-20.553 40.4-28.716 77.485-18.274 82.789 3.191 1.616 7.749.083 13.094-3.936-1.036.787-2.03 1.574-3.025 2.279a76 76 0 0 0 2.362-1.575c1.036-.829 2.072-1.74 3.149-2.652-.373.332-.787.622-1.16.912.704-.58 1.45-1.202 2.196-1.906-.331.29-.704.663-1.036.953 14.627-11.685 30.87-28.094 46.367-47.569 37.044-46.574 56.021-93.106 42.348-104.004-1.243-.994-2.652-1.616-4.31-1.989a212 212 0 0 0-10.11 2.528c-2.528.87-5.097 1.782-7.707 2.776 2.486-.331 4.599.042 6.339 1.16 12.183 7.832-.953 49.889-29.253 94.018-13.923 21.671-28.923 39.737-42.058 51.671 11.685-10.649 26.188-31.118 38.909-56.229 20.552-40.4 28.715-77.485 18.273-82.788-3.191-1.616-7.749-.083-13.094 3.936 1.036-.787 2.03-1.575 3.025-2.279a77 77 0 0 0-2.362 1.575c-1.036.828-2.072 1.74-3.149 2.651.373-.331.787-.621 1.16-.911-.704.58-1.45 1.201-2.196 1.906.331-.29.704-.663 1.036-.953-14.627 11.685-30.87 28.093-46.367 47.568-37.044 46.574-56.021 93.107-42.347 104.004 1.243.995 2.652 1.616 4.309 1.989a211 211 0 0 0 10.11-2.527c2.528-.87 5.097-1.782 7.707-2.776zm69.944-145.564c8.577 3.315 4.351 34.93-9.447 70.606-13.798 35.677-31.947 61.906-40.525 58.549-8.577-3.314-4.35-34.93 9.448-70.606 13.798-35.677 31.947-61.906 40.524-58.549m3.688-8.412c1.782-1.326 3.481-2.486 5.138-3.48.456-.208.953-.415 1.409-.622a89 89 0 0 0-4.351 2.9c-.746.373-1.45.788-2.196 1.202m-57.306 145.979c-1.782 1.326-3.48 2.486-5.138 3.48-.456.208-.953.415-1.409.622a89 89 0 0 0 4.351-2.9c.746-.373 1.45-.788 2.196-1.202m-6.588 4.102c-.87.539-1.699 1.077-2.528 1.575-1.491.704-2.9 1.284-4.226 1.698a94 94 0 0 0 3.397-1.864c1.119-.456 2.238-.912 3.398-1.409zm70.441-154.183c.87-.539 1.699-1.077 2.527-1.575 1.492-.704 2.901-1.284 4.227-1.698a94 94 0 0 0-3.398 1.864 207 207 0 0 0-3.398 1.409zm-8.122 5.552a164 164 0 0 1 3.73-2.652c1.118-.621 2.279-1.201 3.397-1.781-2.32 1.409-4.723 2.859-7.127 4.433m-54.239 143.037a161 161 0 0 1-3.729 2.652c-1.119.622-2.279 1.202-3.398 1.782 2.32-1.409 4.724-2.859 7.127-4.434m-7.127 4.434c-1.492.87-2.942 1.74-4.351 2.527-1.409.581-2.776 1.119-4.144 1.658a200 200 0 0 0 8.495-4.185m68.493-151.946c1.492-.87 2.942-1.74 4.351-2.527 1.409-.58 2.776-1.119 4.144-1.658a202 202 0 0 0-8.495 4.185m-76.988 156.089c-.58.249-1.118.498-1.698.788-.166 0-.373.041-.539.083zm85.524-160.274c.58-.248 1.119-.497 1.699-.787.166 0 .373-.041.539-.083zm-54.902 76.823c-8.246 30.041-9.531 55.897-2.818 57.72s18.812-21.008 27.058-51.049 9.53-55.897 2.817-57.721-18.812 21.008-27.057 51.05m20.966 4.806c-4.019 23.743-11.188 42.306-16.077 41.477-4.889-.828-5.594-20.718-1.574-44.46 4.019-23.743 11.187-42.306 16.077-41.478 4.889.829 5.593 20.718 1.574 44.461m-6.795-32.154c-3.191-.207-6.671 13.342-7.79 30.289s.538 30.87 3.729 31.077 6.671-13.342 7.79-30.289-.539-30.87-3.729-31.077m-1.409 48.604c-1.699.042-3.315-7.914-3.688-17.817-.331-9.904.746-17.942 2.403-18.025 1.699-.041 3.315 7.914 3.688 17.818.332 9.903-.746 17.941-2.403 18.024"/><defs><radialGradient id="a" cx="0" cy="0" r="1" gradientTransform="translate(616.26 646.642)scale(-616.475)" gradientUnits="userSpaceOnUse"><stop stop-color="#004cff"/><stop offset=".802" stop-color="#0d1225"/></radialGradient></defs></svg>