<svg xmlns="http://www.w3.org/2000/svg" width="39" height="27" fill="none" viewBox="0 0 39 27"><path fill="#ededed" d="M36.74 2.911H2.368v3.071H36.74zM18.48 9.372l-1.787 8.449h-2.162l1.788-8.45zm9.097 5.455 1.137-3.172.655 3.172zm2.413 2.994h1.999l-1.747-8.45h-1.844a.98.98 0 0 0-.92.62l-3.245 7.83h2.27l.451-1.262h2.774zm-5.644-2.759c.01-2.23-3.05-2.353-3.029-3.349.007-.303.292-.625.917-.708.31-.04 1.164-.073 2.132.378l.379-1.792a5.8 5.8 0 0 0-2.022-.373c-2.138 0-3.641 1.148-3.653 2.792-.014 1.217 1.074 1.895 1.892 2.3.843.414 1.125.68 1.121 1.05-.005.566-.672.817-1.293.827-1.088.017-1.718-.297-2.22-.534l-.393 1.852c.506.234 1.439.438 2.404.448 2.272 0 3.758-1.134 3.765-2.89m-8.955-5.69-3.503 8.449H9.603l-1.724-6.743c-.105-.415-.196-.567-.513-.742-.52-.286-1.379-.553-2.134-.719l.052-.245h3.679c.468 0 .89.315.997.861l.91 4.89 2.25-5.751zM36.74 21.19H2.368v3.07H36.74z"/><path stroke="#ededed" stroke-width=".955" d="M.936 1.448h37.236v24.276H.936z"/></svg>